Predators (2010) 1080p X264 MKV AC3+DTS Eng-NLSubs

[IMG]http://img836.imageshack.us/img836/5716/frontvc.jpg[/IMG]

PLOT

A group of elite warriors are hunted by members 
of a merciless alien race known as Predators. 

MM:    http://www.moviemeter.nl/film/64490

IMDB:    http://www.imdb.com/title/tt1424381/

INFO

Source.....: 1080P BluRay 
FRAME RATE.: 23.976Fps 
VIDEO CODEC: X264
AUDIO 1....: DTS
AUDIO 2....: AC3
RESOLUTION.: 1920x816
RUNTIME....: 107 MINS 
GENERE.....: Action | Adventure | Sci-Fi | Thriller
LANGUAGE...: English
SUBTITLES..: English & Dutch

Thanks To bradje

Enjoy This Nice Release

PLAYER INFO


      Format : Matroska
      File size : 9.04 GiB
      Duration : 1h 46mn
      Overall bit rate : 12.1 Mbps
      Movie name : Predators (2010) 1080P.X264.NL.SUBBED.Bradje
      Encoded date : UTC 2010-09-26 19:48:57
      Writing application : mkvmerge v3.3.0 ('Language') built on Mar 24 2010 14:59:24
      Writing library : libebml v0.8.0 + libmatroska v0.9.0
   Video #1
      ID : 1
      Format : AVC
      Format/Info : Advanced Video Codec
      Format profile : High@L4.1
      Format settings, CABAC : Yes
      Format settings, ReFrames : 5 frames
      Muxing mode : Container profile=Unknown@4.1
      Codec ID : V_MPEG4/ISO/AVC
      Duration : 1h 46mn
      Bit rate : 9 723 Kbps
      Nominal bit rate : 9 975 Kbps
      Width : 1 920 pixels
      Height : 816 pixels
      Display aspect ratio : 2.35:1
      Frame rate : 23.976 fps
      Resolution : 24 bits
      Colorimetry : 4:2:0
      Scan type : Progressive
      Bits/(Pixel*Frame) : 0.259
      Stream size : 7.25 GiB (80%)
      Title : x264
      Writing library : x264 core 104 r1713 c276662
      Encoding settings : cabac=1 / ref=5 / deblock=1:-3:-3 / analyse=0x3:0x113 / me=umh / subme=9 / psy=1 / psy_rd=1.00:0.00 / mixed_ref=1 / me_range=32 / chroma_me=1 / trellis=2 / 8x8dct=1 / cqm=0 / deadzone=21,11 / fast_pskip=0 / chroma_qp_offset=-4 / threads=12 / sliced_threads=0 / nr=0 / decimate=0 / interlaced=0 / constrained_intra=0 / bframes=5 / b_pyramid=2 / b_adapt=2 / b_bias=0 / direct=3 / weightb=1 / open_gop=0 / weightp=2 / keyint=250 / keyint_min=23 / scenecut=40 / intra_refresh=0 / rc=2pass / mbtree=0 / bitrate=9975 / ratetol=1.0 / qcomp=0.60 / qpmin=10 / qpmax=51 / qpstep=4 / cplxblur=20.0 / qblur=0.5 / ip_ratio=1.40 / pb_ratio=1.30 / aq=1:0.90
      Language : English
   Audio #2
      ID : 2
      Format : AC-3
      Format/Info : Audio Coding 3
      Codec ID : A_AC3
      Duration : 1h 46mn
      Bit rate mode : Constant
      Bit rate : 640 Kbps
      Channel(s) : 6 channels
      Channel positions : Front: L C R, Surround: L R, LFE
      Sampling rate : 48.0 KHz
      Stream size : 489 MiB (5%)
      Title : AC3
      Language : English
   Audio #3
      ID : 3
      Format : DTS
      Format/Info : Digital Theater Systems
      Codec ID : A_DTS
      Duration : 1h 46mn
      Bit rate mode : Constant
      Bit rate : 1 510 Kbps
      Channel(s) : 6 channels
      Channel positions : Front: L C R, Surround: L R, LFE
      Sampling rate : 48.0 KHz
      Resolution : 24 bits
      Stream size : 1.13 GiB (12%)
      Title : DTS
      Language : English
   Text #4
      ID : 4
      Format : UTF-8
      Codec ID : S_TEXT/UTF8
      Codec ID/Info : UTF-8 Plain Text
      Title : Subtitles
      Language : Dutch
   Text #5
      ID : 5
      Format : UTF-8
      Codec ID : S_TEXT/UTF8
      Codec ID/Info : UTF-8 Plain Text
      Title : Subtitles
      Language : English